<svg width="1359" height="1772" viewBox="0 0 1359 1772" fill="none" xmlns="http://www.w3.org/2000/svg">
<g filter="url(#filter0_d)">
<path d="M46.8855 479.756C41.2211 427.607 52.5498 378.009 75.349 331.954C90.0764 302.195 88.2355 276.546 74.641 246.929C45.4694 182.877 38.1057 116.132 56.6565 46.8369C67.1356 7.58366 82.9959 -9.56305 127.461 5.31633C183.397 24.1635 235.793 46.6952 274.735 92.4669C296.26 117.691 320.759 124.21 353.47 123.076C425.125 120.525 497.346 115.565 568.859 127.327C595.34 131.72 613.324 116.557 628.901 100.969C674.358 55.6228 731.852 35.5002 791.044 19.062C827.58 8.85903 850.945 14.1022 848.963 62.5665C846.131 135.83 856.327 210.51 811.719 276.404C795.434 300.636 807.613 323.735 816.959 346.408C835.935 392.18 851.795 438.519 846.414 489.25C747.995 439.227 655.241 448.013 568.576 516.6C524.677 551.318 504.285 602.617 477.379 649.239C454.013 649.239 430.506 649.239 407.141 649.097C402.892 641.445 398.361 633.934 394.537 626.14C321.467 475.363 228.146 433.275 67.7021 478.622C61.188 480.181 53.8243 479.331 46.8855 479.756ZM787.929 72.6278C726.895 76.5956 683.704 104.937 659.206 164.455C691.776 189.395 722.93 213.344 753.943 237.151C798.975 184.436 806.055 149.15 787.929 72.6278ZM141.764 229.074C175.467 203.566 205.913 180.61 235.651 158.078C231.686 131.153 217.1 113.723 198.549 100.261C176.033 83.8227 149.836 60.4409 123.355 71.9192C95.4576 83.9644 109.619 118.683 108.202 143.482C106.362 174.091 116.982 201.582 141.764 229.074Z" fill="#EC6524"/>
</g>
<path d="M401.477 1501.19C338.319 1504.59 276.01 1499.35 215.26 1478.94C234.802 1537.18 221.774 1597.69 225.314 1657.07C228.43 1709.36 243.582 1753.29 293.57 1767.88C348.515 1784.04 400.485 1737.42 402.893 1669.26C405.017 1613.28 402.185 1557.31 401.477 1501.19Z" fill="#DA6223"/>
<path d="M1313.44 972.335C1293.9 967.517 1285.26 942.576 1274.78 924.154C1243.06 868.463 1218.42 865.345 1174.1 910.408C1163.34 921.32 1157.67 937.9 1137.71 942.718C1116.61 919.336 1112.07 875.406 1067.33 877.39C1067.47 879.799 1067.18 882.067 1066.48 884.476C1066.62 886.743 1065.91 888.302 1064.49 889.435C1063.93 890.427 1063.5 891.561 1062.79 892.411C1062.79 892.553 1062.65 892.553 1062.65 892.553C1061.24 897.513 1059.25 902.473 1056.71 907.007C1056.42 907.432 1056.28 907.999 1055.86 908.424C1055.01 909.983 1054.3 911.684 1053.31 913.101C1046.93 923.02 1039.15 931.948 1032.91 941.868C1032.35 943.568 1031.78 945.269 1031.22 946.969C1029.37 952.496 1027.68 958.022 1025.69 963.549C1023.43 970.351 1021.02 977.295 1018.19 984.097C1012.1 1015.84 998.504 1065.01 966.358 1117.16C930.106 1175.83 886.49 1212.25 858.877 1231.8C855.903 1233.08 851.23 1234.92 845.424 1237.19C835.511 1241.01 834.944 1241.16 830.413 1243C814.411 1249.66 810.729 1253.63 809.455 1255.89L809.03 1256.6C776.035 1194.53 739.5 1129.91 698.999 1063.45C657.224 994.866 615.166 930.956 573.816 871.722C483.186 894.962 392.839 892.695 302.634 869.455C228.005 964.399 171.078 1070.68 108.062 1173.14C83.7051 1212.67 73.5092 1251.22 77.3326 1295.57C80.5896 1359.62 94.0426 1417.3 132.702 1458.96C143.748 1470.86 169.521 1498.5 210.446 1507.99C215.402 1509.13 219.65 1509.83 222.624 1510.26C246.698 1515.93 274.453 1521.03 305.324 1524.01C341.718 1527.55 374.571 1527.55 402.752 1525.99C426.542 1510.68 450.333 1512.24 474.123 1525.99C537.281 1529.11 599.589 1524.43 660.34 1505.72C700.84 1502.32 727.746 1476.53 749.554 1446.77C770.371 1418.29 794.727 1408.8 829.563 1408.23C944.55 1406.53 1050.33 1372.09 1144.79 1305.63C1235.98 1241.58 1285.55 1146.64 1331.29 1049.14C1331.29 1042.06 1332.7 1035.82 1338.37 1031.99C1338.51 1031.85 1338.51 1031.71 1338.65 1031.43C1340.07 1028.59 1341.48 1025.9 1342.9 1023.07C1343.46 1001.67 1346.01 980.412 1313.44 972.335ZM709.337 1331.99C699.99 1404.12 651.56 1445.07 570.701 1451.59C527.085 1455.13 482.903 1452.16 439.004 1452.16C439.004 1452.44 439.004 1452.58 439.004 1452.87C402.044 1452.87 365.225 1454 328.265 1452.58C228.855 1448.9 181.557 1410.21 169.096 1312.29C153.802 1191.27 184.248 1079.89 270.347 991.891C395.246 864.353 577.923 902.331 667.562 1070.4C711.602 1152.87 721.232 1241.3 709.337 1331.99Z" fill="#EC6524"/>
<path d="M846.414 489.108C747.995 439.085 655.241 447.871 568.576 516.458C524.535 551.176 504.285 602.475 477.379 649.097C489.416 668.227 504.71 689.058 484.176 709.464C463.785 729.587 435.321 729.162 411.389 718.534C369.614 699.97 386.749 673.612 407.141 648.955C402.892 641.303 398.361 633.792 394.538 625.998C321.467 475.221 228.146 433.133 67.7023 478.48C61.1883 480.322 53.8246 479.472 46.8857 479.755C46.7441 492.084 47.0273 504.271 46.4609 516.458C43.6287 575.55 52.2669 629.683 78.4647 677.58C96.0243 709.748 126.329 740.073 135.958 748.718C136.383 749.143 138.082 750.56 140.207 752.685C152.385 764.306 159.89 775.784 164.422 783.861C170.511 788.254 174.334 793.781 178.441 798.316C178.441 798.316 178.441 798.457 178.583 798.457C183.256 802.708 187.929 806.96 192.602 811.069C230.695 831.334 266.664 850.464 302.633 869.453C392.838 892.835 483.327 894.961 573.957 871.72C602.845 857.266 633.15 844.654 660.481 827.507C663.313 825.665 666.003 824.532 668.694 823.54C670.535 822.264 672.659 821.272 674.925 821.272C674.925 821.272 676.199 821.272 676.624 821.272C677.049 821.131 677.899 821.131 677.899 820.989C679.739 820.705 681.297 820.139 682.996 819.572C685.404 818.722 687.386 817.73 690.36 816.171C694.608 813.903 697.016 812.912 699.282 811.778C702.68 808.519 706.362 805.401 710.327 802.567C723.638 789.53 736.1 775.642 748.845 762.038C749.128 761.755 749.411 761.613 749.695 761.471C811.153 681.831 851.229 593.264 846.414 489.108Z" fill="#F0CEA1"/>
<ellipse cx="650.659" cy="726.766" rx="47.1971" ry="28.3182" fill="#F5ABA2"/>
<ellipse cx="240.044" cy="722.046" rx="47.1971" ry="28.3182" fill="#F5ABA2"/>
<g filter="url(#filter1_d)">
<path d="M1283.28 683.674C1267.99 654.482 1231.31 649.805 1202.28 679.564C1182.74 699.545 1164.75 722.36 1141.95 737.665C1091.96 771.108 1064.35 814.329 1067.04 874.98C1067.18 875.83 1067.18 876.68 1067.32 877.531C1112.07 875.547 1116.6 919.618 1137.7 942.858C1157.67 938.04 1163.34 921.46 1174.1 910.549C1218.42 865.485 1243.06 868.461 1274.78 924.294C1285.26 942.716 1293.9 967.657 1313.44 972.475C1346.15 980.552 1343.46 1001.81 1343.46 1023.63C1343.6 1023.35 1343.75 1023.21 1343.89 1022.92C1344.31 1022.21 1344.45 1021.36 1344.88 1020.66C1344.6 1021.22 1344.45 1021.36 1344.31 1021.51C1344.45 1021.08 1344.74 1020.66 1344.88 1020.37C1345.45 1018.81 1345.87 1017.25 1346.3 1015.55V1015.41C1372.07 896.52 1337.52 787.262 1283.28 683.674Z" fill="#F6D2A2"/>
</g>
<path d="M474.405 1526.27C537.563 1529.39 599.871 1524.71 660.622 1506.01C641.08 1558.86 654.108 1613.71 650.568 1667.55C647.452 1715.03 632.3 1754.85 582.312 1768.03C527.367 1782.62 475.396 1740.39 472.989 1678.61C471.006 1628.02 473.839 1577.14 474.405 1526.27Z" fill="#DA6223"/>
<path d="M239.473 1697.03C247.262 1704.4 246.129 1713.61 244.854 1722.82C236.074 1715.59 236.074 1706.67 239.473 1697.03Z" fill="#EC6524"/>
<path d="M401.901 1558.01C400.91 1555.89 399.494 1553.76 398.927 1551.35C398.786 1550.79 400.768 1549.51 401.76 1548.66C401.76 1551.78 401.901 1554.9 401.901 1558.01Z" fill="#EC6524"/>
<path d="M791.301 72.6262C809.902 149.149 802.636 184.434 756.424 237.15C724.599 213.343 692.628 189.536 659.205 164.453C684.345 104.936 728.523 76.7358 791.301 72.6262Z" fill="#F6D2A2"/>
<path d="M477.238 649.097C489.417 668.228 504.711 689.059 484.036 709.465C463.785 729.588 435.18 729.163 411.248 718.534C369.473 699.971 386.608 673.613 407 648.956C430.365 648.956 453.873 649.097 477.238 649.097Z" fill="#DA6223"/>
<g filter="url(#filter2_d)">
<path d="M439.143 1452.87C402.183 1452.87 365.364 1454 328.404 1452.58C228.994 1448.9 181.697 1410.21 169.235 1312.29C153.941 1191.27 184.387 1079.89 270.486 991.89C395.386 864.353 578.062 902.33 667.701 1070.4C711.6 1152.87 721.088 1241.3 709.334 1331.99C699.988 1404.12 651.558 1445.07 570.698 1451.59C527.083 1455.13 482.9 1452.16 439.001 1452.16C439.143 1452.44 439.143 1452.73 439.143 1452.87Z" fill="#F6D2A2"/>
</g>
<path d="M105.319 65.3307C183.46 72.3896 214.54 93.4377 249.754 164.419C217.382 191.283 184.666 218.349 150.523 246.66C102.205 196.868 89.4688 136.959 105.319 65.3307Z" fill="#F2CEA2"/>
<g filter="url(#filter3_d)">
<path d="M192.036 811.495C190.195 812.345 188.779 813.762 187.505 815.463C186.797 815.746 186.088 816.03 185.522 816.455C184.248 817.447 182.973 818.439 181.84 819.572C179.999 821.415 178.158 823.399 176.459 825.383C172.777 829.35 168.954 833.318 165.272 837.286C164.847 837.711 164.705 838.42 164.422 838.987C163.856 839.412 163.006 839.695 162.581 840.404C162.298 840.97 162.015 841.537 161.873 842.104C102.114 929.963 59.3478 1026.75 14.3159 1122.4C0.0132805 1152.73 -2.53569 1186.6 27.0607 1202.18C34.7077 1206.29 40.7969 1210.83 46.1781 1215.65C47.5942 1216.36 48.8686 1217.35 50.2847 1218.34C50.8512 1218.48 51.4176 1218.62 51.9841 1218.76C53.4002 1219.19 54.8162 1219.61 56.3739 1219.9C56.9404 1220.04 57.3652 1220.04 57.9317 1220.18C60.4806 1220.32 62.888 1220.47 65.437 1220.32C66.7115 1220.32 67.986 1220.18 69.2604 1220.04C66.7115 1220.32 69.8269 1219.9 70.6765 1219.76C73.2255 1219.19 75.7745 1218.48 78.3235 1217.63C78.8899 1217.35 79.5979 1217.21 80.1644 1216.92C81.2973 1216.36 82.4301 1215.79 83.563 1215.22C84.2711 1214.8 84.8375 1214.51 85.5456 1214.09C86.112 1213.8 86.3952 1213.24 86.9617 1212.95C88.3778 1211.25 89.7938 1209.55 91.3516 1207.99C96.0247 1196.66 101.547 1185.18 108.628 1173.84C171.644 1071.39 228.571 965.107 303.2 870.162C266.523 851.032 230.412 831.759 192.036 811.495Z" fill="#DA6223"/>
</g>
<g filter="url(#filter4_d)">
<path d="M858.167 1124.25C812.144 1030.58 768.669 935.774 707.777 849.898C707.494 849.332 707.352 848.765 706.928 848.198C706.503 847.489 705.653 847.348 705.087 846.781C704.803 846.214 704.662 845.647 704.237 845.08C701.405 842.105 698.431 839.129 695.599 836.294C694.183 835.586 692.908 834.594 691.917 833.319C691.492 832.894 691.35 832.185 691.067 831.618C689.793 830.343 688.518 828.926 687.244 827.65C686.111 826.517 684.836 825.525 683.42 824.533C682.712 824.108 682.004 823.824 681.296 823.541C680.022 821.982 678.606 820.565 676.765 819.715C637.822 839.554 600.862 858.401 564.043 877.248C640.088 970.209 698.006 1074.22 762.297 1174.55C769.377 1185.75 775.042 1196.8 779.857 1208C781.414 1209.55 782.83 1211.25 784.246 1212.81C784.813 1213.1 785.238 1213.52 785.663 1213.95C786.371 1214.37 786.937 1214.8 787.645 1215.08C788.778 1215.65 790.052 1216.21 791.185 1216.78C791.893 1217.06 792.46 1217.21 793.168 1217.49C795.717 1218.34 798.266 1219.05 800.956 1219.47C801.806 1219.62 804.921 1220.04 802.373 1219.76C803.647 1219.9 805.063 1220.04 806.338 1220.04C808.887 1220.18 811.436 1219.9 813.984 1219.9C814.551 1219.76 815.117 1219.76 815.542 1219.62C817.1 1219.33 818.516 1218.91 819.932 1218.48C820.499 1218.34 821.065 1218.2 821.631 1218.06C823.048 1217.21 824.322 1216.21 825.738 1215.51C831.261 1210.69 837.35 1206.29 845.139 1202.33C875.301 1187.16 872.753 1154 858.167 1124.25Z" fill="#DA6223"/>
</g>
<path d="M642.353 659.442C672.463 659.442 696.872 635.016 696.872 604.884C696.872 574.753 672.463 550.327 642.353 550.327C612.242 550.327 587.833 574.753 587.833 604.884C587.833 635.016 612.242 659.442 642.353 659.442Z" fill="black"/>
<path d="M248.538 659.442C278.649 659.442 303.058 635.016 303.058 604.884C303.058 574.753 278.649 550.327 248.538 550.327C218.428 550.327 194.018 574.753 194.018 604.884C194.018 635.016 218.428 659.442 248.538 659.442Z" fill="black"/>
<ellipse cx="263.053" cy="623.78" rx="8.84945" ry="7.92764" fill="white"/>
<path d="M630.46 618.63C636.951 618.63 642.213 618.059 642.213 617.354C642.213 616.65 636.951 616.079 630.46 616.079C623.968 616.079 618.706 616.65 618.706 617.354C618.706 618.059 623.968 618.63 630.46 618.63Z" fill="black"/>
<ellipse cx="631.78" cy="592.844" rx="28.3182" ry="25.3684" fill="white"/>
<ellipse cx="641.81" cy="626.14" rx="8.84945" ry="7.92764" fill="white"/>
<ellipse cx="667.768" cy="617.88" rx="8.84945" ry="7.92764" fill="white"/>
<ellipse cx="237.095" cy="626.14" rx="8.84945" ry="7.92764" fill="white"/>
<ellipse cx="243.584" cy="592.844" rx="28.3182" ry="25.3684" fill="white"/>
<path d="M560.985 755.963C560.985 763.043 507.632 822.34 441.818 822.34C376.004 822.34 316.74 761.573 316.74 755.964C316.74 750.354 376.004 802.871 441.818 802.871C507.632 802.871 560.985 748.883 560.985 755.963Z" fill="black"/>
<defs>
<filter id="filter0_d" x="41.4427" y="0" width="811.637" height="657.239" filterUnits="userSpaceOnUse" color-interpolation-filters="sRGB">
<feFlood flood-opacity="0" result="BackgroundImageFix"/>
<feColorMatrix in="SourceAlpha" type="matrix" values="0 0 0 0 0 0 0 0 0 0 0 0 0 0 0 0 0 0 127 0"/>
<feOffset dy="4"/>
<feGaussianBlur stdDeviation="2"/>
<feColorMatrix type="matrix" values="0 0 0 0 0 0 0 0 0 0 0 0 0 0 0 0 0 0 0.25 0"/>
<feBlend mode="normal" in2="BackgroundImageFix" result="effect1_dropShadow"/>
<feBlend mode="normal" in="SourceGraphic" in2="effect1_dropShadow" result="shape"/>
</filter>
<filter id="filter1_d" x="1062.86" y="659.39" width="296.139" height="372.242" filterUnits="userSpaceOnUse" color-interpolation-filters="sRGB">
<feFlood flood-opacity="0" result="BackgroundImageFix"/>
<feColorMatrix in="SourceAlpha" type="matrix" values="0 0 0 0 0 0 0 0 0 0 0 0 0 0 0 0 0 0 127 0"/>
<feOffset dy="4"/>
<feGaussianBlur stdDeviation="2"/>
<feColorMatrix type="matrix" values="0 0 0 0 0 0 0 0 0 0 0 0 0 0 0 0 0 0 0.25 0"/>
<feBlend mode="normal" in2="BackgroundImageFix" result="effect1_dropShadow"/>
<feBlend mode="normal" in="SourceGraphic" in2="effect1_dropShadow" result="shape"/>
</filter>
<filter id="filter2_d" x="161.445" y="916.022" width="556.519" height="545.306" filterUnits="userSpaceOnUse" color-interpolation-filters="sRGB">
<feFlood flood-opacity="0" result="BackgroundImageFix"/>
<feColorMatrix in="SourceAlpha" type="matrix" values="0 0 0 0 0 0 0 0 0 0 0 0 0 0 0 0 0 0 127 0"/>
<feOffset dy="4"/>
<feGaussianBlur stdDeviation="2"/>
<feColorMatrix type="matrix" values="0 0 0 0 0 0 0 0 0 0 0 0 0 0 0 0 0 0 0.25 0"/>
<feBlend mode="normal" in2="BackgroundImageFix" result="effect1_dropShadow"/>
<feBlend mode="normal" in="SourceGraphic" in2="effect1_dropShadow" result="shape"/>
</filter>
<filter id="filter3_d" x="0" y="811.495" width="307.2" height="416.887" filterUnits="userSpaceOnUse" color-interpolation-filters="sRGB">
<feFlood flood-opacity="0" result="BackgroundImageFix"/>
<feColorMatrix in="SourceAlpha" type="matrix" values="0 0 0 0 0 0 0 0 0 0 0 0 0 0 0 0 0 0 127 0"/>
<feOffset dy="4"/>
<feGaussianBlur stdDeviation="2"/>
<feColorMatrix type="matrix" values="0 0 0 0 0 0 0 0 0 0 0 0 0 0 0 0 0 0 0.25 0"/>
<feBlend mode="normal" in2="BackgroundImageFix" result="effect1_dropShadow"/>
<feBlend mode="normal" in="SourceGraphic" in2="effect1_dropShadow" result="shape"/>
</filter>
<filter id="filter4_d" x="560.043" y="819.715" width="312.625" height="408.366" filterUnits="userSpaceOnUse" color-interpolation-filters="sRGB">
<feFlood flood-opacity="0" result="BackgroundImageFix"/>
<feColorMatrix in="SourceAlpha" type="matrix" values="0 0 0 0 0 0 0 0 0 0 0 0 0 0 0 0 0 0 127 0"/>
<feOffset dy="4"/>
<feGaussianBlur stdDeviation="2"/>
<feColorMatrix type="matrix" values="0 0 0 0 0 0 0 0 0 0 0 0 0 0 0 0 0 0 0.25 0"/>
<feBlend mode="normal" in2="BackgroundImageFix" result="effect1_dropShadow"/>
<feBlend mode="normal" in="SourceGraphic" in2="effect1_dropShadow" result="shape"/>
</filter>
</defs>
</svg>
